#!OML:ASF F:\VICON\USERDATA\INSTALL\rory3\rory3.ASF
:FULLY-SPECIFIED
:DEGREES
68
root 0.7812257716411987 17.872504418584853 21.440732464840796 -4.252831573770694 -3.4190392654523505 -0.37137616076348157
lfemur -12.012046872133102 -2.4915944112159916 -23.537273830907033
ltibia 31.89780529875718
lfoot -10.067919136253375 -1.2384568443307558
ltoes -6.013737414029261
rfemur -11.147769567543257 2.7501871659039723 23.203792691919773
rtibia 46.56298096861823
rfoot -3.202021927692087 -4.5126479248406515
rtoes 5.8256178361042
lowerback 10.61956879919533 0.9599413158609176 0.16393166599913656
upperback 0.5562041717899908 1.3648248568213248 0.7096223006740351
thorax -5.378894560363146 0.6775880678546295 0.6947058821805867
lowerneck -15.838129674520976 -2.9051839087941724 -1.9642828520281037
upperneck 21.007242697285477 -3.622970097032623 0.9256750187157813
head 9.355628148913357 -1.767083220954628 0.12453333294983765
lclavicle -1.3860207461540373e-15 -1.8423909078332837e-15
lhumerus -31.747394897585504 3.6920703288654733 81.11749259875212
lradius 27.455776200039974
lwrist 4.150423556745158
lhand -27.057550534420866 24.20824324658767
lfingers 7.125019999999999
lthumb -0.4971316658040324 54.15078743404006
rclavicle -1.3880244278062e-15 -1.8442527671762754e-15
rhumerus -27.517490590637593 -24.98613533067783 -77.38743360971152
rradius 26.110692753183383
rwrist 5.710756129403923
rhand -18.359286682429595 22.701545101945467
rfingers 7.125019999999999
rthumb 7.928823883750525 -7.01057387571178
69
root 0.7794016295403756 17.87484752659997 21.835667980978705 -4.350274229333952 -2.9839970764295973 -0.11761983789332753
lfemur -9.064897869873544 -2.8954469093480197 -24.256756317767056
ltibia 30.875402969858545
lfoot -10.279240786715844 -1.6305607279400656
ltoes -5.805544716332458
rfemur -14.30613861704378 2.13636088684574 22.759214189077703
rtibia 46.50862356354483
rfoot -3.008223217229064 -4.598960983283631
rtoes 4.942644476530057
lowerback 10.782091097380128 0.6993326329537419 -0.21918297526626174
upperback 0.6328627860765604 0.879106018908639 0.7940203935046921
thorax -5.347509476621597 0.511390794015378 1.1535453607368489
lowerneck -15.870153119918168 -2.899572594588518 -2.018603639724077
upperneck 21.029521157932628 -3.586447625370419 0.9459570269435701
head 9.334097580688333 -1.7723725050651662 0.11219706344210179
lclavicle -1.386020746154226e-15 -1.842390907833459e-15
lhumerus -29.86048107675013 2.224114916376686 81.41002513744253
lradius 28.105455656260343
lwrist 4.542041530005955
lhand -27.093207843208486 24.116890088559142
lfingers 7.125019999999999
lthumb -0.6083278821306906 53.93872339387176
rclavicle -1.3880244278061108e-15 -1.8442527671761926e-15
rhumerus -28.684211767594054 -25.901698524360796 -76.51123702016112
rradius 25.944558047059797
rwrist 5.991231976944427
rhand -18.3883437603925 22.667092760177155
rfingers 7.125019999999999
rthumb 7.9002133717776015 -7.061769617867976
70
root 0.7641294649342867 17.85735321500268 22.182985052637914 -4.3346471853164665 -2.479797587340161 0.15816671291037832
lfemur -6.461216087603217 -3.3037484556507053 -24.79981788569698
ltibia 30.219251188108068
lfoot -9.772405324359614 -1.7510263996670652
ltoes -5.2487372983624425
rfemur -17.644360229906837 1.6630718983855912 22.211441157166725
rtibia 45.90557841534372
rfoot -3.4561193831429815 -4.872576110798535
rtoes 4.391724644711848
lowerback 10.871176099992041 0.44601588956595384 -0.6463631542061548
upperback 0.6912259813166549 0.38817514337493664 0.8771968442990195
thorax -5.287682044702888 0.34870839478663856 1.5468684109910285
lowerneck -15.888859623865686 -2.8853318238430687 -2.0432238734668036
upperneck 21.074579433124253 -3.5462712201771867 0.9828692672414784
head 9.358488606343398 -1.7593522709321325 0.13382725394493333
lclavicle -1.386020746153855e-15 -1.8423909078331144e-15
lhumerus -27.97372717524501 0.8667833547156061 81.55427525159365
lradius 28.35597163670553
lwrist 4.9302733174032545
lhand -26.986259756992375 24.316413061570106
lfingers 7.125019999999999
lthumb -0.4108621387653075 54.288705888333276
rclavicle -1.3880244278061918e-15 -1.844252767176268e-15
rhumerus -29.860732279628333 -26.137892527987695 -75.7337575165952
rradius 25.81667223908077
rwrist 6.00703130400521
rhand -18.451949281812468 22.586529579569635
rfingers 7.125019999999999
rthumb 7.8468511721499254 -7.15838604638747
71
root 0.7414046460138342 17.831986293795104 22.90638962879894 -4.133105954723838 -1.9528795322310848 0.5252089592988098
lfemur -4.425830710409212 -3.5815224452418244 -25.73710861112849
ltibia 29.337298262624188
lfoot -8.548526135463483 -2.0007816279246775
ltoes -4.999487527788435
rfemur -20.30214098530875 1.651429463854698 21.806639565141364
rtibia 44.637370826855374
rfoot -4.215378496617276 -5.251198607838843
rtoes 4.249620870038476
lowerback 10.886321770073753 0.2117598544856406 -1.0802061731019286
upperback 0.737708619094365 -0.06073080344961612 0.9581642830540223
thorax -5.194109596101847 0.19284444180572882 1.9266045243108851
lowerneck -15.945719771771095 -2.890510272241806 -2.097888178923134
upperneck 21.09308215627658 -3.537532442947944 1.0178196873815661
head 9.344925982210045 -1.7645083423374421 0.1316468648027096
lclavicle -1.386020746153676e-15 -1.842390907832948e-15
lhumerus -26.22624587811162 -0.3444056468458183 81.55188347221845
lradius 28.3121137067968
lwrist 4.939553637343707
lhand -27.00537132467514 24.269265353336873
lfingers 7.125019999999999
lthumb -0.5532504169532675 54.02972834884609
rclavicle -1.3880244278060982e-15 -1.8442527671761807e-15
rhumerus -30.93482137875697 -26.105502691568635 -75.14961975010436
rradius 25.688765927711064
rwrist 6.073323554088187
rhand -18.496161180735424 22.51781609953943
rfingers 7.125019999999999
rthumb 7.8092088562575945 -7.237349233236719
72
root 0.7180264910272116 17.810053463199786 24.257408643283668 -3.705810314956566 -1.392348925272338 0.9888059329200094
lfemur -1.8790864490951602 -3.614613238875032 -26.530628826954224
ltibia 28.277647669546656
lfoot -6.894753341970206 -2.1558121225607096
ltoes -5.129017373034984
rfemur -22.40299544347613 2.0516660665468116 21.24533231271594
rtibia 43.01923037271666
rfoot -5.084179393259018 -5.657171529172707
rtoes 3.952360540389811
lowerback 10.814020224078549 -0.005048252007550269 -1.4962726566367004
upperback 0.7579311280704719 -0.489905676500646 1.0163828561858423
thorax -5.088006210183893 0.04369929672338349 2.260759624135472
lowerneck -15.956688626225635 -2.877586807191562 -2.1329575212900505
upperneck 21.079264143044387 -3.5574772612008037 1.0420630778085749
head 9.358222614000605 -1.7545650010104623 0.14832797461842734
lclavicle -1.3860207461539858e-15 -1.842390907833236e-15
lhumerus -24.707181279797197 -1.3736134102897068 81.46781358556797
lradius 28.169396369531544
lwrist 5.422077055232135
lhand -26.966048465030422 24.3756712145818
lfingers 7.125019999999999
lthumb -0.405164079367199 54.30328291644291
rclavicle -1.388024427806084e-15 -1.8442527671761673e-15
rhumerus -31.795719222423426 -26.01170281782371 -74.57620378368354
rradius 25.46000266316164
rwrist 6.263297617418369
rhand -18.485229657254244 22.535482325713186
rfingers 7.125019999999999
rthumb 7.76737229185116 -7.321842779649339
73
root 0.692328132662568 17.790313184261766 25.88151586605487 -3.1118684759960606 -0.8085730288909719 1.4777337774830803
lfemur 0.8143130886566734 -3.4357197964431045 -26.71965722344202
ltibia 27.10229706138597
lfoot -6.447249793818344 -3.0524664265118653
ltoes -5.624843518476338
rfemur -23.1546178238441 2.850667253430646 20.787887585900997
rtibia 40.819728396940285
rfoot -5.856420533737218 -5.979368194565547
rtoes 3.6648370087584574
lowerback 10.682677606975888 -0.18756296018716728 -1.8543233392515157
upperback 0.7593999727274863 -0.8481149241622907 1.0696272994537317
thorax -4.970418241827053 -0.08073573061577577 2.5661773124177865
lowerneck -16.025222868967 -2.8800453296205926 -2.1851283101389107
upperneck 21.074303475843582 -3.5711699072759084 1.070095447046221
head 9.366174387813532 -1.742318998496825 0.15351642776724184
lclavicle -1.386020746153951e-15 -1.8423909078332036e-15
lhumerus -23.58156004696868 -2.302590401876307 81.35697299642726
lradius 27.8628054013544
lwrist 5.581767281235821
lhand -26.967442661989242 24.361680376109273
lfingers 7.125019999999999
lthumb -0.568475242787178 54.02022806695111
rclavicle -1.3880244278059246e-15 -1.8442527671760194e-15
rhumerus -32.550529098259766 -26.234609784856517 -74.01341241512552
rradius 25.10674055096567
rwrist 6.445445603815816
rhand -18.473821010362702 22.56208163079636
rfingers 7.125019999999999
rthumb 7.761355314088849 -7.355936091732756
